<svg xmlns="http://www.w3.org/2000/svg" viewBox="0 0 24 24"><path d="M23.5 19.5H.5A.5.5 0 0 1 0 19V5a.5.5 0 0 1 .5-.5h23c.275 0 .5.225.5.5v14c0 .275-.225.5-.5.5zM1 18.5h22v-13H1v13z"/><path d="M12 14.584a.503.503 0 0 1-.31-.107l-9-7.107a.502.502 0 0 1-.083-.703.503.503 0 0 1 .703-.083l9 7.109a.5.5 0 0 1-.31.891z"/><path d="M12 14.584a.498.498 0 0 1-.31-.89l9-7.109a.503.503 0 0 1 .703.083.499.499 0 0 1-.082.702l-9 7.107a.506.506 0 0 1-.311.107zM3 17.275a.503.503 0 0 1-.434-.25.503.503 0 0 1 .185-.685l7-4.021a.501.501 0 0 1 .498.87l-7 4.021a.498.498 0 0 1-.249.065z"/><path d="M21 17.275a.512.512 0 0 1-.249-.065l-7-4.021a.501.501 0 1 1 .498-.872l7 4.021a.503.503 0 0 1-.249.937z"/></svg>