<svg xmlns="http://www.w3.org/2000/svg" viewBox="0 0 24 24"><path fill="#fff" d="M11.354 11.646v-.793l-.5.5v.793c0 .551.449 1 1 1h.793l.5-.5h-.793a1 1 0 0 1-1-1z" opacity=".2"/><path fill="#303c42" d="M24 5.5C24 2.467 21.533 0 18.5 0c-1.704 0-3.23.779-4.239 2H2C.897 2 0 2.897 0 4v18c0 1.103.897 2 2 2h18c1.103 0 2-.897 2-2V9.739A5.489 5.489 0 0 0 24 5.5z"/><circle cx="18.5" cy="5.5" r="4.5" fill="#ffca28"/><path fill="#66bb6a" d="M2 3h11.607A5.463 5.463 0 0 0 13 5.5c0 .682.13 1.332.358 1.935L1 19.793V4c0-.551.449-1 1-1z"/><path fill="#f2f2f2" d="M1 22v-.793L13.825 8.382a5.545 5.545 0 0 0 1.793 1.793L2.793 23H2c-.551 0-1-.449-1-1z"/><path fill="#ccc" d="M11 16.207V23H4.207z"/><path fill="#ffca28" d="M21 22c0 .551-.449 1-1 1h-8v-7.269c.344-.279 1.247-.93 2.565-1.459l3.581 3.581a.5.5 0 0 0 .708.001L21 15.707V22z"/><path fill="#ffb300" d="m21 14.293-2.5 2.5-2.878-2.878A10.417 10.417 0 0 1 18.5 13.5c.839 0 1.678.102 2.5.302v.491z"/><path fill="#ccc" d="M21 12.802c-.825-.184-1.66-.302-2.5-.302-1.982 0-3.628.5-4.857 1.064l2.922-2.922A5.454 5.454 0 0 0 18.5 11c.901 0 1.749-.222 2.5-.607v2.409z"/><path fill="#fff" d="M5.5 10.5c1.654 0 3-1.346 3-3A.5.5 0 0 0 8 7H6a.5.5 0 0 0 0 1h1.437A2.004 2.004 0 0 1 5.5 9.5c-1.103 0-2-.897-2-2a2.002 2.002 0 0 1 3.202-1.599.5.5 0 1 0 .6-.8A2.977 2.977 0 0 0 5.5 4.5c-1.654 0-3 1.346-3 3s1.346 3 3 3z"/><path fill="#fff" d="M1.5 4.5c0-.551.449-1 1-1h10.882c.079-.169.132-.339.225-.5H2c-.551 0-1 .449-1 1v15.793l.5-.5V4.5z" opacity=".2"/><linearGradient id="a" x1="17.564" x2="20.862" y1="9.643" y2="12.941" gradientUnits="userSpaceOnUse"><stop offset="0" stop-opacity=".1"/><stop offset="1" stop-opacity="0"/></linearGradient><path fill="url(#a)" d="M17.779 12.544c.24-.015.47-.044.721-.044.84 0 1.675.119 2.5.302v-2.41a5.45 5.45 0 0 1-2.5.608c-.682 0-1.332-.13-1.935-.358l-.344.344 1.558 1.558z"/><linearGradient id="b" x1="19.547" x2="22.236" y1="16.727" y2="19.416" gradientUnits="userSpaceOnUse"><stop offset="0" stop-opacity=".1"/><stop offset="1" stop-opacity="0"/></linearGradient><path fill="url(#b)" d="M21 20.652v-4.945l-2.146 2.146a.5.5 0 0 1-.543.11L21 20.652z"/><linearGradient id="c" x1="-1.334" x2="23.971" y1="6.418" y2="18.217" gradientUnits="userSpaceOnUse"><stop offset="0" stop-color="#fff" stop-opacity=".2"/><stop offset="1" stop-color="#fff" stop-opacity="0"/></linearGradient><path fill="url(#c)" d="M24 5.5C24 2.467 21.533 0 18.5 0c-1.704 0-3.23.779-4.239 2H2C.897 2 0 2.897 0 4v18c0 1.103.897 2 2 2h18c1.103 0 2-.897 2-2V9.739A5.489 5.489 0 0 0 24 5.5z"/></svg>