<svg xmlns="http://www.w3.org/2000/svg" width="32" height="32" viewBox="0 0 8.467 8.467"><g transform="translate(-68.781 -67.778)"><path fill="#d2e8ff" d="m 278.65234,260.33594 c -5.32633,4e-4 -9.66952,4.33771 -9.66992,9.66406 -1.3e-4,3.26167 1.88834,5.59894 2.8125,7.44727 a 1.0001,1.0001 0 0 0 0.0371,0.0664 l 4.90039,8.16992 a 1.0001,1.0001 0 0 0 0.125,-0.16601 l 6.00196,-10.00391 a 1.0001,1.0001 0 0 0 0.0371,-0.0664 c 0.93701,-1.87403 2.7254,-4.25491 2.73047,-7.44727 -1.9e-4,-2.56658 -1.01319,-4.89815 -2.65234,-6.63086 -1.30252,-0.65566 -2.76782,-1.03309 -4.32227,-1.0332 z" color="#000" font-family="sans-serif" font-weight="400" overflow="visible" paint-order="markers fill stroke" transform="scale(.26458)" style="line-height:normal;font-variant-ligatures:normal;font-variant-position:normal;font-variant-caps:normal;font-variant-numeric:normal;font-variant-alternates:normal;font-feature-settings:normal;text-indent:0;text-align:start;text-decoration-line:none;text-decoration-style:solid;text-decoration-color:#000;text-transform:none;text-orientation:mixed;shape-padding:0;isolation:auto;mix-blend-mode:normal"/><path fill="#2a57fe" d="m 73.015698,68.351384 c -1.409261,1.06e-4 -2.558394,1.147689 -2.5585,2.55695 -3.5e-5,0.862986 0.499623,1.481386 0.74414,1.970423 a 0.26460979,0.26460979 0 0 0 0.0098,0.01757 l 1.587501,2.646868 a 0.26460979,0.26460979 0 0 0 0.453202,0 l 1.588018,-2.646868 a 0.26460979,0.26460979 0 0 0 0.0098,-0.01757 c 0.247916,-0.495837 0.721092,-1.125778 0.722433,-1.970423 -1.06e-4,-1.409261 -1.14717,-2.556844 -2.556433,-2.55695 z m 0,0.529683 c 1.123309,8.5e-5 2.027181,0.90396 2.027266,2.027267 -0.0011,0.639458 -0.385035,1.169093 -0.666107,1.730126 l -1.351341,2.254126 -1.351854,-2.249991 -0.0021,-0.0041 c -0.284533,-0.567701 -0.685257,-1.078376 -0.685231,-1.730126 8.5e-5,-1.123308 0.906026,-2.027182 2.029333,-2.027267 z m 0,0.695047 c -0.732939,0 -1.334284,0.599281 -1.334284,1.33222 -2e-6,0.732938 0.601345,1.331703 1.334284,1.3317 0.732938,0 1.331703,-0.598762 1.331703,-1.3317 0,-0.732939 -0.598765,-1.33222 -1.331703,-1.33222 z m 0,0.529167 c 0.446955,0 0.802536,0.356097 0.802536,0.803053 0,0.446955 -0.355578,0.8046 -0.802536,0.804603 -0.446956,0 -0.804604,-0.357648 -0.804601,-0.804603 0,-0.446956 0.357645,-0.803053 0.804601,-0.803053 z" color="#000" font-family="sans-serif" font-weight="400" overflow="visible" paint-order="markers fill stroke" style="line-height:normal;font-variant-ligatures:normal;font-variant-position:normal;font-variant-caps:normal;font-variant-numeric:normal;font-variant-alternates:normal;font-feature-settings:normal;text-indent:0;text-align:start;text-decoration-line:none;text-decoration-style:solid;text-decoration-color:#000;text-transform:none;text-orientation:mixed;shape-padding:0;isolation:auto;mix-blend-mode:normal"/></g></svg>